<?xml version="1.0" standalone="no"?>
<!DOCTYPE svg PUBLIC "-//W3C//DTD SVG 20010904//EN"
        "http://www.w3.org/TR/2001/REC-SVG-20010904/DTD/svg10.dtd">
<svg version="1.0" xmlns="http://www.w3.org/2000/svg"
     width="3339.000000pt" height="3339.000000pt" viewBox="0 0 3339.000000 3339.000000"
     preserveAspectRatio="xMidYMid meet">
    <metadata>
        Created by potrace 1.14, written by Peter Selinger 2001-2017
    </metadata>
    <rect width="100%" height="100%" fill="white"/>
    <g transform="translate(0.000000,3339.000000) scale(0.100000,-0.100000)"
       fill="#089c0d" style="background-color: red" stroke="none">
        <path d="M10 16690 l0 -16690 16690 0 16690 0 0 16690 0 16690 -16690 0
-16690 0 0 -16690z m16500 5545 l0 -5355 -5355 0 -5355 0 0 5355 0 5355 5355
0 5355 0 0 -5355z m7708 5332 c479 -58 882 -177 1282 -377 366 -182 653 -387
949 -675 568 -554 941 -1253 1080 -2025 59 -328 55 -26 58 -3987 l3 -3623
-5350 0 -5350 0 0 5355 0 5356 3593 -4 c3343 -3 3602 -4 3735 -20z m-7708
-16417 l0 -5350 -3622 3 c-3353 3 -3632 4 -3748 20 -785 107 -1418 382 -1994
863 -144 121 -389 370 -502 510 -401 500 -663 1070 -778 1696 -65 348 -60 58
-63 4016 l-4 3592 5356 0 5355 0 0 -5350z m11080 0 l0 -5350 -5350 0 -5350 0
0 5350 0 5350 5350 0 5350 0 0 -5350z"/>
        <path d="M8210 22270 l0 -2920 3025 0 3025 0 0 1125 0 1125 -985 0 -985 0 0
-330 0 -330 -1015 0 -1015 0 0 285 0 285 790 0 790 0 0 715 0 715 -790 0 -790
0 0 325 0 325 1015 0 1015 0 0 -330 0 -330 985 0 985 0 0 1130 0 1130 -3025 0
-3025 0 0 -2920z"/>
        <path d="M18650 11480 l0 -2920 1025 0 1025 0 0 1561 0 1560 40 -3 c39 -3 47
-12 805 -893 421 -489 770 -890 775 -890 5 0 353 401 775 890 759 883 766 890
805 893 l40 3 0 -1560 0 -1561 1025 0 1025 0 0 2920 0 2920 -1064 0 -1064 0
-769 -894 c-422 -492 -770 -895 -773 -895 -3 0 -351 403 -774 895 l-768 894
-1064 0 -1064 0 0 -2920z"/>
    </g>
</svg>
